<svg xmlns="http://www.w3.org/2000/svg" xmlns:xlink="http://www.w3.org/1999/xlink" width="200" zoomAndPan="magnify" viewBox="0 0 150 92.249997" height="123" preserveAspectRatio="xMidYMid meet" version="1.0"><defs><clipPath id="ba1768a94e"><path d="M 0.605469 0 L 149.394531 0 L 149.394531 91.507812 L 0.605469 91.507812 Z M 0.605469 0 " clip-rule="nonzero"/></clipPath><clipPath id="133daae8a3"><path d="M 73.800781 42.257812 L 76.648438 42.257812 L 76.648438 44.675781 L 73.800781 44.675781 Z M 73.800781 42.257812 " clip-rule="nonzero"/></clipPath><clipPath id="667a73d52f"><path d="M 76.640625 43.128906 C 75.375 45.136719 74.183594 44.765625 73.960938 44.316406 C 73.664062 43.871094 73.886719 42.679688 74.257812 42.382812 C 74.703125 42.085938 76.265625 42.457031 76.265625 42.457031 " clip-rule="nonzero"/></clipPath><clipPath id="992a3ce70e"><path d="M 0.800781 0.257812 L 3.648438 0.257812 L 3.648438 2.675781 L 0.800781 2.675781 Z M 0.800781 0.257812 " clip-rule="nonzero"/></clipPath><clipPath id="61b89018ff"><path d="M 3.640625 1.128906 C 2.375 3.136719 1.183594 2.765625 0.960938 2.316406 C 0.664062 1.871094 0.886719 0.679688 1.257812 0.382812 C 1.703125 0.0859375 3.265625 0.457031 3.265625 0.457031 " clip-rule="nonzero"/></clipPath><clipPath id="93a71208ad"><rect x="0" width="4" y="0" height="3"/></clipPath></defs><g clip-path="url(#ba1768a94e)"><path fill="#012169" d="M 0.878906 0 L 149.121094 0 L 149.121094 91.507812 L 0.878906 91.507812 Z M 0.878906 0 " fill-opacity="1" fill-rule="nonzero"/><path fill="#ffffff" d="M 149.121094 8.570312 L 109.101562 32.96875 L 149.121094 32.96875 L 149.121094 58.539062 L 109.101562 58.539062 L 149.121094 82.941406 L 149.121094 91.511719 L 136.90625 91.511719 L 86.675781 60.882812 L 86.675781 91.507812 L 63.324219 91.507812 L 63.324219 60.882812 L 13.089844 91.507812 L 0.878906 91.507812 L 0.878906 82.9375 L 40.894531 58.539062 L 0.878906 58.539062 L 0.878906 32.96875 L 40.894531 32.96875 L 1.003906 8.648438 L 0.878906 0 L 13.089844 0 L 63.324219 30.625 L 63.324219 0 L 86.675781 0 L 86.675781 30.625 L 136.90625 0 L 149.121094 0 Z M 149.121094 8.570312 " fill-opacity="1" fill-rule="nonzero"/><path fill="#c8102e" d="M 82.292969 37.660156 L 149.121094 37.660156 L 149.121094 53.851562 L 82.292969 53.851562 L 82.292969 91.511719 L 67.707031 91.511719 L 67.707031 53.847656 L 0.878906 53.847656 L 0.878906 37.660156 L 67.707031 37.660156 L 67.707031 0 L 82.289062 0 L 82.289062 37.660156 Z M 54.289062 32.96875 L 0.878906 0 L 0.878906 6.402344 L 44.453125 32.96875 Z M 95.710938 58.539062 L 149.121094 91.507812 L 149.121094 85.105469 L 105.546875 58.539062 Z M 141.03125 0 L 86.710938 32.96875 L 96.066406 32.96875 L 149.121094 0.765625 L 149.121094 0 Z M 0.878906 90.742188 L 0.878906 91.507812 L 8.964844 91.507812 L 63.285156 58.539062 L 53.933594 58.539062 Z M 0.878906 90.742188 " fill-opacity="1" fill-rule="nonzero"/></g><g clip-path="url(#133daae8a3)"><g clip-path="url(#667a73d52f)"><g transform="matrix(1, 0, 0, 1, 73, 42)"><g clip-path="url(#93a71208ad)"><g clip-path="url(#992a3ce70e)"><g clip-path="url(#61b89018ff)"><rect x="-106" width="216" fill="#c8102e" height="132.839996" y="-62.294999" fill-opacity="1"/></g></g></g></g></g></g></svg>