<svg width="97" height="46" viewBox="0 0 97 46" fill="none" xmlns="http://www.w3.org/2000/svg">
<g clip-path="url(#clip0_1666_24038)">
<path d="M58.6785 17.2499H45.9257C44.6047 17.2499 42.6397 19.1487 43.1031 20.5929H70.7482C71.0671 20.5929 71.2567 17.6808 71.4222 17.0241C73.6701 8.10635 85.0717 4.85842 92.1793 10.5698C100.984 17.6421 96.985 31.2995 86.0738 33.2786C79.5168 32.8923 72.2437 33.8551 65.771 33.3053C63.9204 33.1478 62.1751 32.292 60.839 31.044C60.505 30.7319 59.1539 28.8509 59.0095 28.842C58.4979 28.8182 58.7206 30.7438 58.6574 31.1628C58.543 31.9117 57.4899 33.2934 56.7526 33.2934H29.3332V38.3095C29.3332 41.6257 24.7623 45.9999 21.5455 45.9999H16.2434V20.9257C16.2434 18.1533 20.7722 13.9039 23.5797 13.9039H29.3332V20.3671H33.1699C33.5972 5.42896 54.6943 2.79318 58.6724 17.2469L58.6785 17.2499ZM87.1691 20.5424C87.1691 18.7921 85.7307 17.3717 83.9584 17.3717C82.186 17.3717 80.7476 18.7921 80.7476 20.5424C80.7476 22.2927 82.186 23.7131 83.9584 23.7131C85.7307 23.7131 87.1691 22.2927 87.1691 20.5424Z" fill="#006D82"/>
<path d="M13.0898 13.907V38.5354C13.0898 41.6229 8.67538 46 5.53082 46H0V21.1517C0 18.1653 4.53479 13.907 7.55899 13.907H13.0898Z" fill="#006D82"/>
<path d="M24.004 10.4778C26.9339 10.4778 29.3091 8.13225 29.3091 5.23889C29.3091 2.34553 26.9339 0 24.004 0C21.074 0 18.6989 2.34553 18.6989 5.23889C18.6989 8.13225 21.074 10.4778 24.004 10.4778Z" fill="#006D82"/>
<path d="M7.11061 10.7749C10.0406 10.7749 12.4157 8.42937 12.4157 5.53601C12.4157 2.64265 10.0406 0.297119 7.11061 0.297119C4.18067 0.297119 1.80548 2.64265 1.80548 5.53601C1.80548 8.42937 4.18067 10.7749 7.11061 10.7749Z" fill="#13B3B0"/>
</g>
<defs>
<clipPath id="clip0_1666_24038">
<rect width="97" height="46" fill="white"/>
</clipPath>
</defs>
</svg>
